<mxfile host="app.diagrams.net" agent="Mozilla/5.0 (Windows NT 10.0; Win64; x64) AppleWebKit/537.36 (KHTML, like Gecko) Chrome/139.0.0.0 Safari/537.36" version="28.1.2">
  <diagram name="Class Diagram" id="3ux8-VnFIorZR0wglwep">
    <mxGraphModel dx="1042" dy="562" grid="1" gridSize="10" guides="1" tooltips="1" connect="1" arrows="1" fold="1" page="1" pageScale="1" pageWidth="827" pageHeight="1169" math="0" shadow="0">
      <root>
        <mxCell id="0" />
        <mxCell id="1" parent="0" />
        <mxCell id="TkbVixRZmOmSiOJ9g3DL-45" value="" style="rounded=0;whiteSpace=wrap;html=1;container=1;" parent="1" vertex="1">
          <mxGeometry x="330" y="270" width="560" height="430" as="geometry" />
        </mxCell>
        <mxCell id="TkbVixRZmOmSiOJ9g3DL-92" value="Order Recieved" style="text;strokeColor=none;align=center;fillColor=none;html=1;verticalAlign=middle;whiteSpace=wrap;rounded=0;" parent="TkbVixRZmOmSiOJ9g3DL-45" vertex="1">
          <mxGeometry x="275" y="50" width="90" height="30" as="geometry" />
        </mxCell>
        <mxCell id="TkbVixRZmOmSiOJ9g3DL-93" value="Reject" style="text;strokeColor=none;align=center;fillColor=none;html=1;verticalAlign=middle;whiteSpace=wrap;rounded=0;" parent="TkbVixRZmOmSiOJ9g3DL-45" vertex="1">
          <mxGeometry x="140" y="103" width="60" height="32" as="geometry" />
        </mxCell>
        <mxCell id="TkbVixRZmOmSiOJ9g3DL-94" value="Accept" style="text;strokeColor=none;align=center;fillColor=none;html=1;verticalAlign=middle;whiteSpace=wrap;rounded=0;" parent="TkbVixRZmOmSiOJ9g3DL-45" vertex="1">
          <mxGeometry x="341" y="104" width="60" height="30" as="geometry" />
        </mxCell>
        <mxCell id="TkbVixRZmOmSiOJ9g3DL-95" value="Item Not Available" style="text;strokeColor=none;align=center;fillColor=none;html=1;verticalAlign=middle;whiteSpace=wrap;rounded=0;" parent="TkbVixRZmOmSiOJ9g3DL-45" vertex="1">
          <mxGeometry x="270" y="186" width="60" height="30" as="geometry" />
        </mxCell>
        <mxCell id="TkbVixRZmOmSiOJ9g3DL-96" value="Item Available" style="text;strokeColor=none;align=center;fillColor=none;html=1;verticalAlign=middle;whiteSpace=wrap;rounded=0;" parent="TkbVixRZmOmSiOJ9g3DL-45" vertex="1">
          <mxGeometry x="440" y="186" width="60" height="30" as="geometry" />
        </mxCell>
        <mxCell id="TkbVixRZmOmSiOJ9g3DL-97" value="Item Available" style="text;strokeColor=none;align=center;fillColor=none;html=1;verticalAlign=middle;whiteSpace=wrap;rounded=0;" parent="TkbVixRZmOmSiOJ9g3DL-45" vertex="1">
          <mxGeometry x="330" y="222" width="90" height="30" as="geometry" />
        </mxCell>
        <mxCell id="TkbVixRZmOmSiOJ9g3DL-69" value="" style="endArrow=none;html=1;rounded=0;" parent="1" edge="1">
          <mxGeometry width="50" height="50" relative="1" as="geometry">
            <mxPoint x="409.9999999999999" y="300" as="sourcePoint" />
            <mxPoint x="409.9999999999999" y="270" as="targetPoint" />
          </mxGeometry>
        </mxCell>
        <mxCell id="TkbVixRZmOmSiOJ9g3DL-70" value="Order&lt;div&gt;&lt;br&gt;&lt;/div&gt;" style="text;strokeColor=none;align=center;fillColor=none;html=1;verticalAlign=middle;whiteSpace=wrap;rounded=0;" parent="1" vertex="1">
          <mxGeometry x="339.9999999999999" y="300" width="60" height="10" as="geometry" />
        </mxCell>
        <mxCell id="TkbVixRZmOmSiOJ9g3DL-71" value="" style="endArrow=none;html=1;rounded=0;exitX=0.006;exitY=0.138;exitDx=0;exitDy=0;exitPerimeter=0;" parent="1" edge="1">
          <mxGeometry width="50" height="50" relative="1" as="geometry">
            <mxPoint x="330" y="319.68000000000006" as="sourcePoint" />
            <mxPoint x="390.9999999999999" y="320" as="targetPoint" />
          </mxGeometry>
        </mxCell>
        <mxCell id="TkbVixRZmOmSiOJ9g3DL-72" value="" style="endArrow=none;html=1;rounded=0;" parent="1" edge="1">
          <mxGeometry width="50" height="50" relative="1" as="geometry">
            <mxPoint x="389.9999999999999" y="320" as="sourcePoint" />
            <mxPoint x="409.9999999999999" y="300" as="targetPoint" />
          </mxGeometry>
        </mxCell>
        <mxCell id="TkbVixRZmOmSiOJ9g3DL-73" value="" style="ellipse;whiteSpace=wrap;html=1;aspect=fixed;fillColor=light-dark(#330000, #ffffff);" parent="1" vertex="1">
          <mxGeometry x="584.9999999999999" y="290" width="30" height="30" as="geometry" />
        </mxCell>
        <mxCell id="TkbVixRZmOmSiOJ9g3DL-74" value="" style="rounded=1;whiteSpace=wrap;html=1;container=1;" parent="1" vertex="1">
          <mxGeometry x="534.9999999999999" y="350" width="130" height="40" as="geometry" />
        </mxCell>
        <mxCell id="TkbVixRZmOmSiOJ9g3DL-75" value="Unprocessed" style="text;strokeColor=none;align=center;fillColor=none;html=1;verticalAlign=middle;whiteSpace=wrap;rounded=0;container=1;" parent="TkbVixRZmOmSiOJ9g3DL-74" vertex="1" collapsed="1">
          <mxGeometry x="13.5" y="5" width="103" height="30" as="geometry">
            <mxRectangle x="351" y="255" width="100" height="30" as="alternateBounds" />
          </mxGeometry>
        </mxCell>
        <mxCell id="TkbVixRZmOmSiOJ9g3DL-76" value="" style="endArrow=classic;html=1;rounded=0;exitX=0.5;exitY=1;exitDx=0;exitDy=0;entryX=0.5;entryY=0;entryDx=0;entryDy=0;" parent="1" source="TkbVixRZmOmSiOJ9g3DL-73" target="TkbVixRZmOmSiOJ9g3DL-74" edge="1">
          <mxGeometry width="50" height="50" relative="1" as="geometry">
            <mxPoint x="539.9999999999999" y="470" as="sourcePoint" />
            <mxPoint x="549.9999999999999" y="350" as="targetPoint" />
          </mxGeometry>
        </mxCell>
        <mxCell id="TkbVixRZmOmSiOJ9g3DL-77" value="" style="endArrow=classic;html=1;rounded=0;exitX=0;exitY=0.75;exitDx=0;exitDy=0;entryX=0.5;entryY=0;entryDx=0;entryDy=0;" parent="1" source="TkbVixRZmOmSiOJ9g3DL-74" target="TkbVixRZmOmSiOJ9g3DL-78" edge="1">
          <mxGeometry width="50" height="50" relative="1" as="geometry">
            <mxPoint x="539.9999999999999" y="470" as="sourcePoint" />
            <mxPoint x="488" y="420" as="targetPoint" />
          </mxGeometry>
        </mxCell>
        <mxCell id="TkbVixRZmOmSiOJ9g3DL-78" value="" style="rounded=1;whiteSpace=wrap;html=1;container=1;" parent="1" vertex="1">
          <mxGeometry x="434.9999999999999" y="425" width="100" height="40" as="geometry" />
        </mxCell>
        <mxCell id="TkbVixRZmOmSiOJ9g3DL-79" value="" style="rounded=1;whiteSpace=wrap;html=1;container=1;" parent="1" vertex="1">
          <mxGeometry x="659.9999999999999" y="425" width="100" height="40" as="geometry" />
        </mxCell>
        <mxCell id="TkbVixRZmOmSiOJ9g3DL-80" value="Accepted" style="text;strokeColor=none;align=center;fillColor=none;html=1;verticalAlign=middle;whiteSpace=wrap;rounded=0;container=1;" parent="TkbVixRZmOmSiOJ9g3DL-79" vertex="1" collapsed="1">
          <mxGeometry x="10.38" width="79.23" height="35" as="geometry">
            <mxRectangle x="351" y="255" width="100" height="30" as="alternateBounds" />
          </mxGeometry>
        </mxCell>
        <mxCell id="TkbVixRZmOmSiOJ9g3DL-81" value="" style="rounded=1;whiteSpace=wrap;html=1;container=1;" parent="1" vertex="1">
          <mxGeometry x="569.9999999999999" y="500" width="80" height="30" as="geometry" />
        </mxCell>
        <mxCell id="TkbVixRZmOmSiOJ9g3DL-82" value="Pending" style="text;strokeColor=none;align=center;fillColor=none;html=1;verticalAlign=middle;whiteSpace=wrap;rounded=0;container=1;" parent="TkbVixRZmOmSiOJ9g3DL-81" vertex="1" collapsed="1">
          <mxGeometry x="8.30769230769232" y="3.75" width="63.384615384615394" height="22.5" as="geometry">
            <mxRectangle x="351" y="255" width="100" height="30" as="alternateBounds" />
          </mxGeometry>
        </mxCell>
        <mxCell id="TkbVixRZmOmSiOJ9g3DL-83" value="" style="rounded=1;whiteSpace=wrap;html=1;container=1;" parent="1" vertex="1">
          <mxGeometry x="769.9999999999999" y="500" width="80" height="30" as="geometry" />
        </mxCell>
        <mxCell id="TkbVixRZmOmSiOJ9g3DL-84" value="Fulfilled" style="text;strokeColor=none;align=center;fillColor=none;html=1;verticalAlign=middle;whiteSpace=wrap;rounded=0;container=1;" parent="TkbVixRZmOmSiOJ9g3DL-83" vertex="1" collapsed="1">
          <mxGeometry x="8.307692307692264" y="3.75" width="63.384615384615394" height="22.5" as="geometry">
            <mxRectangle x="351" y="255" width="100" height="30" as="alternateBounds" />
          </mxGeometry>
        </mxCell>
        <mxCell id="TkbVixRZmOmSiOJ9g3DL-85" value="" style="endArrow=classic;html=1;rounded=0;exitX=1;exitY=0.75;exitDx=0;exitDy=0;entryX=0.5;entryY=0;entryDx=0;entryDy=0;" parent="1" source="TkbVixRZmOmSiOJ9g3DL-74" target="TkbVixRZmOmSiOJ9g3DL-80" edge="1">
          <mxGeometry width="50" height="50" relative="1" as="geometry">
            <mxPoint x="796.9999999999999" y="400" as="sourcePoint" />
            <mxPoint x="719.9999999999999" y="420" as="targetPoint" />
          </mxGeometry>
        </mxCell>
        <mxCell id="TkbVixRZmOmSiOJ9g3DL-86" value="" style="endArrow=classic;html=1;rounded=0;exitX=1;exitY=0.75;exitDx=0;exitDy=0;entryX=0.25;entryY=0;entryDx=0;entryDy=0;" parent="1" target="TkbVixRZmOmSiOJ9g3DL-83" edge="1">
          <mxGeometry width="50" height="50" relative="1" as="geometry">
            <mxPoint x="749.9999999999999" y="465" as="sourcePoint" />
            <mxPoint x="794.9999999999999" y="510" as="targetPoint" />
          </mxGeometry>
        </mxCell>
        <mxCell id="TkbVixRZmOmSiOJ9g3DL-87" value="" style="endArrow=classic;html=1;rounded=0;exitX=0;exitY=0.75;exitDx=0;exitDy=0;entryX=0.885;entryY=-0.007;entryDx=0;entryDy=0;entryPerimeter=0;" parent="1" target="TkbVixRZmOmSiOJ9g3DL-81" edge="1">
          <mxGeometry width="50" height="50" relative="1" as="geometry">
            <mxPoint x="678.6899999999999" y="465" as="sourcePoint" />
            <mxPoint x="631.6899999999998" y="508" as="targetPoint" />
          </mxGeometry>
        </mxCell>
        <mxCell id="TkbVixRZmOmSiOJ9g3DL-88" value="Rejected" style="text;strokeColor=none;align=center;fillColor=none;html=1;verticalAlign=middle;whiteSpace=wrap;rounded=0;container=1;" parent="1" vertex="1" collapsed="1">
          <mxGeometry x="445.3799999999999" y="435" width="79.23" height="25" as="geometry">
            <mxRectangle x="351" y="255" width="100" height="30" as="alternateBounds" />
          </mxGeometry>
        </mxCell>
        <mxCell id="TkbVixRZmOmSiOJ9g3DL-89" value="" style="endArrow=classic;html=1;rounded=0;" parent="1" edge="1">
          <mxGeometry width="50" height="50" relative="1" as="geometry">
            <mxPoint x="479.9999999999999" y="465" as="sourcePoint" />
            <mxPoint x="659.9999999999999" y="660" as="targetPoint" />
            <Array as="points">
              <mxPoint x="479.9999999999999" y="660" />
            </Array>
          </mxGeometry>
        </mxCell>
        <mxCell id="TkbVixRZmOmSiOJ9g3DL-90" value="◉" style="text;whiteSpace=wrap;fontSize=39;" parent="1" vertex="1">
          <mxGeometry x="654.9999999999999" y="630" width="40" height="45" as="geometry" />
        </mxCell>
        <mxCell id="TkbVixRZmOmSiOJ9g3DL-91" value="" style="endArrow=classic;html=1;rounded=0;exitX=0.5;exitY=1;exitDx=0;exitDy=0;" parent="1" edge="1">
          <mxGeometry width="50" height="50" relative="1" as="geometry">
            <mxPoint x="809.4999999999999" y="530" as="sourcePoint" />
            <mxPoint x="685.9999999999999" y="660" as="targetPoint" />
            <Array as="points">
              <mxPoint x="809.9999999999999" y="660" />
            </Array>
          </mxGeometry>
        </mxCell>
        <mxCell id="TkbVixRZmOmSiOJ9g3DL-98" value="" style="endArrow=classic;html=1;rounded=0;entryX=-0.118;entryY=0.589;entryDx=0;entryDy=0;entryPerimeter=0;" parent="1" target="TkbVixRZmOmSiOJ9g3DL-84" edge="1">
          <mxGeometry width="50" height="50" relative="1" as="geometry">
            <mxPoint x="649" y="517" as="sourcePoint" />
            <mxPoint x="720" y="520" as="targetPoint" />
          </mxGeometry>
        </mxCell>
      </root>
    </mxGraphModel>
  </diagram>
</mxfile>
